HIERARCHY
ROOT hips
{
  OFFSET 0 9.313263304106702 1.2146308026317778
  CHANNELS 6 Xposition Yposition Zposition Yrotation Xrotation Zrotation
  JOINT spine
  {
    OFFSET -6.402521e-31 0.5173342420023708 0
    CHANNELS 3 Yrotation Xrotation Zrotation
    JOINT chest
    {
      OFFSET 0 1.130544299341115 0
      CHANNELS 3 Yrotation Xrotation Zrotation
      JOINT upperChest
      {
        OFFSET 0 1.0863555061129995 0
        CHANNELS 3 Yrotation Xrotation Zrotation
        JOINT neck
        {
          OFFSET 0 1.3773706506454462 0
          CHANNELS 3 Yrotation Xrotation Zrotation
          JOINT head
          {
            OFFSET 0 0.7374408940073979 0
            CHANNELS 3 Yrotation Xrotation Zrotation
            JOINT leftEye
            {
              OFFSET 0.25066580148932727 0.6408406698778757 0.15963719178883284
              CHANNELS 3 Yrotation Xrotation Zrotation
              End Site
              {
                OFFSET 0.25066580148932727 0.6408406698778757 0.15963719178883284
              }
            }
            JOINT rightEye
            {
              OFFSET -0.25066576739704244 0.6408406384191823 0.15963727561643756
              CHANNELS 3 Yrotation Xrotation Zrotation
              End Site
              {
                OFFSET -0.25066576739704244 0.6408406384191823 0.15963727561643756
              }
            }
          }
        }
        JOINT leftShoulder
        {
          OFFSET 0.3761817444281191 1.0539491987447769 0
          CHANNELS 3 Yrotation Xrotation Zrotation
          JOINT leftUpperArm
          {
            OFFSET 0.8702844380000002 0 0
            CHANNELS 3 Yrotation Xrotation Zrotation
            JOINT leftLowerArm
            {
              OFFSET 2.198527310000323 0 0
              CHANNELS 3 Yrotation Xrotation Zrotation
              JOINT leftHand
              {
                OFFSET 2.146852313968281 0 0
                CHANNELS 3 Yrotation Xrotation Zrotation
                JOINT leftIndexProximal
                {
                  OFFSET 0.6585177834681599 0.07380250427007962 0.18382213159631788
                  CHANNELS 3 Yrotation Xrotation Zrotation
                  JOINT leftIndexIntermediate
                  {
                    OFFSET 0.3323021288626682 -0.009606893929485771 -0.012820872253340998
                    CHANNELS 3 Yrotation Xrotation Zrotation
                    JOINT leftIndexDistal
                    {
                      OFFSET 0.2045908926985518 -0.0071133989147997845 -0.006828784783599051
                      CHANNELS 3 Yrotation Xrotation Zrotation
                      End Site
                      {
                        OFFSET 0.2045908926985518 -0.0071133989147997845 -0.006828784783599051
                      }
                    }
                  }
                }
                JOINT leftLittleProximal
                {
                  OFFSET 0.6110054258835662 0.07380246363125398 -0.29175655876064077
                  CHANNELS 3 Yrotation Xrotation Zrotation
                  JOINT leftLittleIntermediate
                  {
                    OFFSET 0.3144281999999998 -2.5124724523095665e-9 1.8658118799974588e-7
                    CHANNELS 3 Yrotation Xrotation Zrotation
                    JOINT leftLittleDistal
                    {
                      OFFSET 0.18116185580251631 0.002815456192251098 0.0034826415518049436
                      CHANNELS 3 Yrotation Xrotation Zrotation
                      End Site
                      {
                        OFFSET 0.18116185580251631 0.002815456192251098 0.0034826415518049436
                      }
                    }
                  }
                }
                JOINT leftMiddleProximal
                {
                  OFFSET 0.6637478005691111 0.07380246480054087 0.02046981859247815
                  CHANNELS 3 Yrotation Xrotation Zrotation
                  JOINT leftMiddleIntermediate
                  {
                    OFFSET 0.3705733999999994 -2.9611069152224445e-9 9.35054791928458e-8
                    CHANNELS 3 Yrotation Xrotation Zrotation
                    JOINT leftMiddleDistal
                    {
                      OFFSET 0.22861063500000056 -1.82673876025774e-9 -1.6740782024515788e-7
                      CHANNELS 3 Yrotation Xrotation Zrotation
                      End Site
                      {
                        OFFSET 0.22861063500000056 -1.82673876025774e-9 -1.6740782024515788e-7
                      }
                    }
                  }
                }
                JOINT leftRingProximal
                {
                  OFFSET 0.6561845547265777 0.07380246406440083 -0.13588087571513918
                  CHANNELS 3 Yrotation Xrotation Zrotation
                  JOINT leftRingIntermediate
                  {
                    OFFSET 0.3437531000000005 -2.746796123886952e-9 1.4935781944558357e-7
                    CHANNELS 3 Yrotation Xrotation Zrotation
                    JOINT leftRingDistal
                    {
                      OFFSET 0.1983118991198174 -0.002467117924596085 -0.004538141969590015
                      CHANNELS 3 Yrotation Xrotation Zrotation
                      End Site
                      {
                        OFFSET 0.1983118991198174 -0.002467117924596085 -0.004538141969590015
                      }
                    }
                  }
                }
                JOINT leftThumbProximal
                {
                  OFFSET 0.09767004258864787 -0.14930060425447422 -0.07008212897521154
                  CHANNELS 3 Yrotation Xrotation Zrotation
                  JOINT leftThumbIntermediate
                  {
                    OFFSET 0.36682123028154767 -0.015768465060082004 0.28693641268151077
                    CHANNELS 3 Yrotation Xrotation Zrotation
                    JOINT leftThumbDistal
                    {
                      OFFSET 0.21091084272403915 -0.016756648201192714 0.1933767059105508
                      CHANNELS 3 Yrotation Xrotation Zrotation
                      End Site
                      {
                        OFFSET 0.21091084272403915 -0.016756648201192714 0.1933767059105508
                      }
                    }
                  }
                }
              }
            }
          }
        }
        JOINT rightShoulder
        {
          OFFSET -0.37618174442811925 1.0539491987447769 0
          CHANNELS 3 Yrotation Xrotation Zrotation
          JOINT rightUpperArm
          {
            OFFSET -0.870284438 0 0
            CHANNELS 3 Yrotation Xrotation Zrotation
            JOINT rightLowerArm
            {
              OFFSET -2.1985273100003235 0 0
              CHANNELS 3 Yrotation Xrotation Zrotation
              JOINT rightHand
              {
                OFFSET -2.1468523139682802 0 0
                CHANNELS 3 Yrotation Xrotation Zrotation
                JOINT rightIndexProximal
                {
                  OFFSET -0.6585177834681599 0.07380250427007962 0.18382213159631788
                  CHANNELS 3 Yrotation Xrotation Zrotation
                  JOINT rightIndexIntermediate
                  {
                    OFFSET -0.3323021288626682 -0.009606893929485771 -0.012820872253340998
                    CHANNELS 3 Yrotation Xrotation Zrotation
                    JOINT rightIndexDistal
                    {
                      OFFSET -0.2045908926985518 -0.0071133989147997845 -0.006828784783599051
                      CHANNELS 3 Yrotation Xrotation Zrotation
                      End Site
                      {
                        OFFSET -0.2045908926985518 -0.0071133989147997845 -0.006828784783599051
                      }
                    }
                  }
                }
                JOINT rightLittleProximal
                {
                  OFFSET -0.6110054258835662 0.07380246363125398 -0.29175655876064077
                  CHANNELS 3 Yrotation Xrotation Zrotation
                  JOINT rightLittleIntermediate
                  {
                    OFFSET -0.3144281999999998 -2.5124724523095665e-9 1.8658118799974588e-7
                    CHANNELS 3 Yrotation Xrotation Zrotation
                    JOINT rightLittleDistal
                    {
                      OFFSET -0.18116185580251631 0.002815456192251098 0.0034826415518049436
                      CHANNELS 3 Yrotation Xrotation Zrotation
                      End Site
                      {
                        OFFSET -0.18116185580251631 0.002815456192251098 0.0034826415518049436
                      }
                    }
                  }
                }
                JOINT rightMiddleProximal
                {
                  OFFSET -0.6637478005691111 0.07380246480054087 0.02046981859247815
                  CHANNELS 3 Yrotation Xrotation Zrotation
                  JOINT rightMiddleIntermediate
                  {
                    OFFSET -0.3705733999999994 -2.9611069152224445e-9 9.35054791928458e-8
                    CHANNELS 3 Yrotation Xrotation Zrotation
                    JOINT rightMiddleDistal
                    {
                      OFFSET -0.22861063500000056 -1.82673876025774e-9 -1.6740782024515788e-7
                      CHANNELS 3 Yrotation Xrotation Zrotation
                      End Site
                      {
                        OFFSET -0.22861063500000056 -1.82673876025774e-9 -1.6740782024515788e-7
                      }
                    }
                  }
                }
                JOINT rightRingProximal
                {
                  OFFSET -0.6561845547265777 0.07380246406440083 -0.13588087571513918
                  CHANNELS 3 Yrotation Xrotation Zrotation
                  JOINT rightRingIntermediate
                  {
                    OFFSET -0.3437531000000005 -2.746796123886952e-9 1.4935781944558357e-7
                    CHANNELS 3 Yrotation Xrotation Zrotation
                    JOINT rightRingDistal
                    {
                      OFFSET -0.1983118991198174 -0.002467117924596085 -0.004538141969590015
                      CHANNELS 3 Yrotation Xrotation Zrotation
                      End Site
                      {
                        OFFSET -0.1983118991198174 -0.002467117924596085 -0.004538141969590015
                      }
                    }
                  }
                }
                JOINT rightThumbProximal
                {
                  OFFSET -0.09767004258864787 -0.14930060425447422 -0.07008212897521154
                  CHANNELS 3 Yrotation Xrotation Zrotation
                  JOINT rightThumbIntermediate
                  {
                    OFFSET -0.36682123028154767 -0.015768465060082004 0.28693641268151077
                    CHANNELS 3 Yrotation Xrotation Zrotation
                    JOINT rightThumbDistal
                    {
                      OFFSET -0.21091084272403915 -0.016756648201192714 0.1933767059105508
                      CHANNELS 3 Yrotation Xrotation Zrotation
                      End Site
                      {
                        OFFSET -0.21091084272403915 -0.016756648201192714 0.1933767059105508
                      }
                    }
                  }
                }
              }
            }
          }
        }
      }
    }
  }
  JOINT leftUpperLeg
  {
    OFFSET 0.7715603 -0.3993844658041501 0
    CHANNELS 3 Yrotation Xrotation Zrotation
    JOINT leftLowerLeg
    {
      OFFSET 0 -3.529830000249343 0
      CHANNELS 3 Yrotation Xrotation Zrotation
      JOINT leftFoot
      {
        OFFSET 0 -4.154939295409685 0.004208579085223096
        CHANNELS 3 Yrotation Xrotation Zrotation
        JOINT leftToes
        {
          OFFSET 0 -0.6353414391261847 1.10414981190622
          CHANNELS 3 Yrotation Xrotation Zrotation
          End Site
          {
            OFFSET 0 -0.6015820691747853 1.10414981190622
          }
        }
      }
    }
  }
  JOINT rightUpperLeg
  {
    OFFSET -0.7715603 -0.3993844658041501 0
    CHANNELS 3 Yrotation Xrotation Zrotation
    JOINT rightLowerLeg
    {
      OFFSET 0 -3.529830000249343 0
      CHANNELS 3 Yrotation Xrotation Zrotation
      JOINT rightFoot
      {
        OFFSET 0 -4.154939295409685 0.004208579085223096
        CHANNELS 3 Yrotation Xrotation Zrotation
        JOINT rightToes
        {
          OFFSET 0 -0.6353414391261847 1.10414981190622
          CHANNELS 3 Yrotation Xrotation Zrotation
          End Site
          {
            OFFSET 0 -0.6015820691747853 1.10414981190622
          }
        }
      }
    }
  }
}
MOTION
Frames: 4
Frame Time: 0.03333333333333333
0.012575010345740751 8.937000794844193 1.3376885067120128 -5.229297942046809 -3.737431069406238 -3.428253003664878 1.5548699856432924 3.2885332652099217 2.8341140353808907 0.7500172771581756 2.26717065792886 3.150096606963013 0 0 0 -0.08123923228501458 5.626303639075384 0.4467185168659662 1.3814481413480058 -7.5611233587989135 -0.26264691905473847 0 0 0 0 0 0 -17.44482886749782 1.0011733321439666 -12.63411896838896 -20.03223955674997 3.680065833962854 -71.10570178654494 -1.4751578757451405 -0.000004800471738494026 -0.00000576484685834968 -1.629163038128447 -33.219382351697824 -5.2926394866506365 -0.9820144992157268 0.018188000322520017 -7.594546102318506 1.7645968760640018 0.26982738041843257 -17.367484040641227 0.8133627630728569 0.05758997031362045 -8.037183461203286 5.768518952321826 1.023706762741735 -27.035294486777016 1.722151198989196 0.3314723168354142 -17.396497840715625 1.651687893742205 0.29929974370181445 -16.497941556939175 2.662322019500337 -0.07724097186339848 -15.700365128025487 1.7582772734503196 0.2683013766014154 -17.39725669253513 1.856346453290693 0.3007293539102907 -18.403609386679666 3.6424377287675602 0.13686107284025154 -21.12473673928907 2.0947849520156603 0.3866124248709601 -20.897776172567553 1.8005296998974278 0.2830819170282475 -17.85507875349396 2.803456690440762 -0.4444526840286232 4.952378031325141 24.96140260967952 10.503598229110532 21.839096972462094 2.9177081416286272 -13.937596751032245 8.247747387591566 15.344770807761341 1.1523608043318865 15.022181163592318 28.185118301292462 11.64380719504588 64.95782777775273 6.693718934922234 0.000001152705482320241 -0.000023255105232054065 -0.5493898288136309 -20.17835372248129 6.97224358249588 1.2430227839010484 0.03568476251773758 6.824309386482652 -1.36732588605293 0.2105380934385177 17.401862413852022 -0.6640050323120119 0.045981538789479345 8.052681921743153 -4.835097092194271 0.7143008500811475 26.410163923727804 -1.3086829977497605 0.1674930588916146 17.43249185076742 -1.389305965689646 0.1646185376942065 16.5316328279205 -2.2607277162006825 -0.1212349210375584 15.004326522124861 -1.3028945647367052 0.202440811565405 17.43176835988006 -1.5137051156363874 0.2387631869725307 18.440102378297173 -3.0590918721558458 0.02432713018747927 20.4493714548911 -1.6933333310232879 0.31103556256020265 20.93949306694012 -1.4460832512639024 0.23204566590309725 17.891349368898908 -0.9172891811766626 -1.4061047358988923 -4.365002444532927 -29.37202440257423 10.81613815876937 -22.093157439550957 -2.845855037858475 -15.63113221267397 -11.849913428759727 14.992323112422131 -10.427808047622019 7.569620589767057 2.07679439390927 12.128987738073935 4.608971781128622 0.5153078679391098 1.285221956820787 -7.09904626701031 -0.000001634436784564395 -4.928481419588803 -0.0000036853357864629134 -10.39357608898571 0.6378062053192768 3.3997838640311717 -9.842910625338652 7.220943982240538 -4.526588195007035 -1.6469882313193636 -3.6485197194550323 3.3057223718406017 1.14247552140575e-7 -7.282878676128769 0.000001964207025061265
0.01227140680632808 8.936784050681373 1.3387662670616332 -5.197650627536924 -3.7182420328201897 -3.404601815760538 1.5549075857525767 3.2885873554640113 2.832222255430568 0.7500165829831409 2.267167880990797 3.150096606963013 0 0 0 -0.08123470730345467 5.60147377717636 0.44675466487758897 1.3809377877952396 -7.532183331410862 -0.2379600929577712 0 0 0 0 0 0 -17.410121594879808 0.9996578663605722 -12.630766020812425 -20.114266663579826 3.689864789601378 -71.06770024078834 -1.4751402724998433 -0.000018350189573820863 -0.0000010445268280503068 -1.6108945381569792 -33.21707184911785 -5.326823577262558 -0.9826434453320775 0.027643764335306166 -7.601100574540323 1.7646001829046278 0.2698288211774374 -17.36747161320009 0.8133568406119679 0.05758658856786032 -8.037186842754938 5.768513005220972 1.023713807498749 -27.035311282668353 1.722150558937463 0.3314752250505653 -17.39649621124666 1.651679786152015 0.2992918728686275 -16.49793337059007 2.6542976643991754 -0.07947419901661813 -15.701221225273189 1.7582768467598122 0.26829489318670663 -17.397251804176666 1.8563430399413474 0.3007179078496881 -18.40361262715763 3.644338580620574 0.1372957649321826 -21.143516376520537 2.094280499953545 0.3864130641883807 -20.89249024045186 1.8005301265786897 0.2830899479346298 -17.85507712817069 2.8034626598830936 -0.44444961568726654 4.952378031325141 24.96138865714742 10.503586940902029 21.83910793660503 2.917710557591847 -13.93759939004946 8.247769656710751 15.319674599377835 1.1647197833685758 15.00075029698488 28.21230780340199 11.644622247354745 64.92233966895239 6.693732078206419 3.2245822093637056e-7 -0.000004903982559824552 -0.547281518536843 -20.1664347545555 6.972035951453411 1.2399151505532713 0.03335512063904211 6.86222501622782 -1.3673225785998164 0.21054580413381935 17.40187484105155 -0.6639957481441187 0.045972067235041776 8.052690375297386 -4.848960800557466 0.7214115817460305 26.43156870436613 -1.3140666921634048 0.16900656596818878 17.50090519487522 -1.3946867066078166 0.16609997454233436 16.600043091147313 -2.260730488811584 -0.1212161112948131 15.00433147012778 -1.3019414211250622 0.20213587907105252 17.41964995267709 -1.512770240180665 0.23844806172323066 18.427952860716562 -3.047836521143736 0.01966314617345937 20.47840618370678 -1.6959611728888389 0.31203729397897806 20.97412024856882 -1.4487489688193855 0.2329287686080061 17.925790610455 -0.905889425100756 -1.4068698408773177 -4.363106206801405 -29.37203822759596 10.816129466611928 -22.093174855092318 -2.8458569848638735 -15.631144624542134 -11.849903884407384 14.97909434382788 -10.430762245420826 7.5427676692742365 2.0736090398232356 12.135865682004278 4.6086787143800505 0.5158359715440359 1.2814858666728715 -7.07961262287618 0.000007194557217302188 -4.928475849465781 -2.7971793239714504e-7 -10.396869051487931 0.5948448704742383 3.376230056040449 -9.88740672624913 7.279571811307592 -4.5423947342841515 -1.6482801817711619 -3.687536848773299 3.320005279522184 0.000011141481504960929 -7.282878676128769 -6.179310368498827e-7
0.012057542970234697 8.936543031172318 1.3404488790906222 -5.161482805560958 -3.698554624840989 -3.377390754741994 1.554933325892564 3.2849883289051265 2.8341553043630614 0.7500386998264122 2.2579792356901787 3.1661977349922923 0 0 0 -0.08122848599374739 5.560400827477302 0.4586467178775162 1.383001845072864 -7.482585082068382 -0.21006277253496286 0 0 0 0 0 0 -17.370375231213426 0.9988036426468656 -12.62715839397326 -20.1650363240615 3.6865401394778297 -71.02879262169988 -1.4741544087533307 -0.0000054622420668460325 -0.000013690318911352415 -1.5918288421441797 -33.194863927296325 -5.3680000740322 -0.985136123223233 0.0405511266374209 -7.592916609730863 1.7645969827362804 0.26982127053302507 -17.367502986953948 0.8133653774925231 0.05759752087811913 -8.037169457512732 5.756705440091054 1.0175052477864304 -27.02384294534332 1.7221521590667948 0.3314844299517372 -17.39649458177767 1.6516921608949102 0.29929913004363357 -16.497949075853185 2.6481633037297483 -0.0813420908414353 -15.708901860152968 1.757742319665341 0.26811453152787207 -17.391823626745797 1.8558206710163487 0.30055691594029177 -18.398192294000747 3.6398017104404774 0.1354844656694434 -21.147481219174374 2.0934283755370053 0.3861107680873446 -20.88348567477976 1.8005200995689854 0.2830763941125658 -17.855067954437985 2.772391435620036 -0.4579258900661071 4.9668496058490765 24.961401035248297 10.503607780671896 21.839104712580994 2.9177061649314395 -13.93760466808398 8.24776356269298 15.286910902611268 1.1677800218921455 14.985032537904802 28.231720398523805 11.645618619358938 64.8809345381948 6.6937443476305285 -0.0000017714539487178974 0.000005442538708705403 -0.5329954501550873 -20.160868515574794 6.968344852893853 1.247690241431434 0.0286857018149641 6.915335663511913 -1.3673244990564641 0.21053765320850926 17.401871582241967 -0.6639960682878396 0.04595839351208835 8.052685303164889 -4.866951443239985 0.7305093769440398 26.44516539771381 -1.3114916074292564 0.1682792810733131 17.468301846150798 -1.392123380853657 0.16539682230137367 16.567421847347944 -2.2540243945753784 -0.12325583453854853 15.014823282480723 -1.30058551432582 0.20174049937585645 17.402101157383026 -1.511414236762647 0.23797952270490108 18.410409498010328 -3.04823085670895 0.01950333207724337 20.49553921989796 -1.697045910619898 0.31246087871945266 20.988376396804657 -1.4498513247546612 0.23328914411062007 17.940012031582903 -0.8891905617769715 -1.4080542755477325 -4.360320616233253 -29.37202288761212 10.816151197006008 -22.093155828766253 -2.845865794251895 -15.631153490162712 -11.849908950966668 14.967766799211546 -10.438882744372963 7.509001160858317 2.0549722458320274 12.147978490858934 4.605272203296522 0.5159469063555937 1.2663923270194297 -7.0859314357795204 0.000010430585154275246 -4.928487846653887 5.776156523999113e-7 -10.407278970133197 0.554290663399318 3.345712759158179 -9.928943158138168 7.3417014039415145 -4.558499503605713 -1.6488617487436756 -3.732604253180609 3.3383393341499294 0.000003944941956045515 -7.292598004655816 -0.000004064180788491194
0.011772740293632853 8.936397379094903 1.342786193956428 -5.117745475728487 -3.671845865092048 -3.352674003315204 1.5549709390295328 3.2767700942353697 2.8371591672861047 0.7556990983631489 2.2367850783424967 3.183125443545087 0 0 0 -0.07780668566365494 5.48990634722283 0.4811473038299071 1.4158925006746337 -7.470701975409399 -0.17553168956386833 0 0 0 0 0 0 -17.333499228473105 0.9998158385323951 -12.615946990669464 -20.178260312767073 3.666654952681095 -70.99498218851173 -1.472639368022414 -0.000011491634537825713 0.0000068128747392155805 -1.5794192072566644 -33.16131986783581 -5.400132085807616 -0.9897772030276352 0.031600332034478845 -7.574870610175724 1.7645986894927337 0.2698134264006723 -17.367479761790854 0.8133592949651312 0.05759192465584484 -8.03717669809981 5.736517940837797 1.0063692354027132 -26.970010296128514 1.7225419384394793 0.33162810645374746 -17.4005262132724 1.652079158691001 0.2994167389686655 -16.501977474791946 2.6479230181546622 -0.08075131890782845 -15.681659804586259 1.756821218584772 0.26782352493393013 -17.382395626293455 1.8548986005166466 0.30024595129602893 -18.38877285991573 3.6207126469447233 0.12932364526555917 -21.077182791303393 2.0937403010313655 0.3862217078202623 -20.88675940568983 1.8008834212122842 0.283199152253531 -17.858726489982896 2.673082684346583 -0.49664848386877813 4.993040159913198 24.941618540463438 10.497887316586365 21.83341931267713 2.9177050667663327 -13.937602908739127 8.247758705053219 15.25228431947671 1.169799616756665 14.97449966878318 28.233855658358788 11.641650586877976 64.83775016514896 6.693739259907652 -0.000004300879369127218 0.00001548300939823389 -0.5087849274006983 -20.156191936893137 6.9508554779287595 1.2736255154139307 0.025333229152903772 6.919198412594592 -1.3669605162188652 0.21041837755728235 17.397270772004177 -0.6636333592278563 0.04592061735115232 8.048012469604744 -4.861293769195113 0.7273211815104359 26.40812439825755 -1.2990250311135103 0.16484476196505005 17.309507960402815 -1.3796252622791205 0.16197216214802337 16.408607170026098 -2.2487302211998452 -0.12473207933090198 15.01765484277191 -1.300432649753904 0.20170865608953362 17.40014719483968 -1.5112540283662934 0.23792464059440577 18.40847151453473 -3.068076666284352 0.027628811622070773 20.452099051287046 -1.6935705684295244 0.311130866448178 20.9426084953667 -1.4463246465445856 0.23212018494549214 17.894589400189798 -0.8861769974804543 -1.4084616486207644 -4.352967734098409 -29.375255277894592 10.815383680441462 -22.09414970747378 -2.845848839578264 -15.63113575892194 -11.84990228852212 14.962276325391255 -10.458604095101308 7.4737682118615 2.0165859084805895 12.16828069016484 4.597762493713684 0.5156018550970698 1.2449118801094863 -7.118071216607039 -9.139705820175955e-7 -4.928477991820785 -0.000002401463090141769 -10.414832148422963 0.5230037056482736 3.3207225987349784 -9.983714606391437 7.380115066736895 -4.576814559212939 -1.6483315558432228 -3.7701393010295425 3.358931240706323 -0.000005412189941520557 -7.305342247374141 -0.0000023470903493171473
